<svg id="Cloud_Migration" viewBox="0 0 64 64" xmlns="http://www.w3.org/2000/svg" data-name="Cloud Migration"><path d="m42.86 11.29c-.58 0-1.15.06-1.71.17 0-.03 0-.07 0-.1 0-5.16-4.1-9.36-9.14-9.36s-9.14 4.2-9.14 9.36v.1c-.57-.11-1.14-.17-1.71-.17-5.04 0-9.14 4.2-9.14 9.36s4.1 9.36 9.14 9.36h21.71c5.04 0 9.14-4.2 9.14-9.36s-4.1-9.36-9.14-9.36z" fill="#f1f2f2"/><path d="m42.86 43.29c-.58 0-1.15.06-1.71.17 0-.03 0-.07 0-.1 0-5.16-4.1-9.36-9.14-9.36s-9.14 4.2-9.14 9.36v.1c-.57-.11-1.14-.17-1.71-.17-5.04 0-9.14 4.2-9.14 9.36s4.1 9.36 9.14 9.36h21.71c5.04 0 9.14-4.2 9.14-9.36s-4.1-9.36-9.14-9.36z" fill="#6b71f2"/><g fill="#0a0f26"><path d="m59 44h-2.22c3.38-3.15 5.22-6.92 5.22-10.82s-1.84-7.73-5.32-10.92c-.41-.37-1.04-.34-1.41.06-.37.41-.35 1.04.06 1.41 3.06 2.8 4.68 6.07 4.68 9.45s-1.76 6.89-5 9.73v-2.92c0-.55-.45-1-1-1s-1 .45-1 1v5s.02.07.02.11c0 .07.02.13.04.2s.05.13.08.19c.02.03.02.07.04.1.01.02.04.02.05.04.07.08.15.15.24.21.03.02.06.05.1.07.13.06.27.1.42.1h5c.55 0 1-.45 1-1s-.45-1-1-1z"/><path d="m10 39c-.55 0-1 .45-1 1v2.92c-3.24-2.85-5-6.25-5-9.73s1.62-6.65 4.68-9.45c.41-.37.44-1 .06-1.41-.37-.41-1.01-.44-1.41-.06-3.48 3.19-5.32 6.97-5.32 10.92s1.84 7.66 5.22 10.82h-2.22c-.55 0-1 .45-1 1s.45 1 1 1h5c.15 0 .29-.04.42-.1.04-.02.06-.04.1-.07.09-.06.17-.12.24-.21.01-.02.04-.02.05-.04.02-.03.03-.07.04-.1.03-.06.06-.12.08-.19s.03-.13.04-.2c0-.04.02-.07.02-.11v-5c0-.55-.45-1-1-1z"/></g></svg>