<svg id="Layer_1" enable-background="new 0 0 512 512" viewBox="0 0 512 512" xmlns="http://www.w3.org/2000/svg"><g clip-rule="evenodd" fill-rule="evenodd"><g><path d="m153.454 281.358h125.998v71.768h-125.998z" fill="#a79ba7"/><path d="m269.68 281.358h9.771v71.768h-9.771z" fill="#837683"/><path d="m80.259 383.725h272.387v-21c0-11.55-11.827-20.999-26.283-20.999h-219.822c-14.456 0-26.283 9.449-26.283 20.999v21z" fill="#eceff1"/><path d="m80.259 383.725h272.387v-21c0-6.864-4.177-12.986-10.601-16.824 1.444 2.595 2.249 5.461 2.249 8.472v21h-264.035z" fill="#d1d1d6"/><path d="m46.821 19.095h339.263c16.951 0 30.82 13.869 30.82 30.82v212.025c0 16.951-13.869 30.82-30.82 30.82h-339.263c-16.951 0-30.82-13.869-30.82-30.82v-212.025c0-16.951 13.869-30.82 30.82-30.82z" fill="#eceff1"/><path d="m403.275 24.371c8.207 5.552 13.628 14.945 13.628 25.544v212.025c0 16.951-13.869 30.82-30.82 30.82h-339.262c-10.598 0-19.991-5.421-25.543-13.628 4.919 3.328 10.839 5.276 17.191 5.276h339.263c16.951 0 30.82-13.869 30.82-30.82v-212.026c-.001-6.352-1.949-12.272-5.277-17.191z" fill="#d1d1d6"/><path d="m46.048 44.867h340.809c2.351 0 4.274 1.925 4.274 4.274v191.926h-349.357v-191.926c0-2.35 1.923-4.274 4.274-4.274z" fill="#d8ecfe"/><path d="m370.152 44.867h16.705c2.351 0 4.274 1.925 4.274 4.274v191.926h-16.705v-191.926c.001-2.35-1.923-4.274-4.274-4.274z" fill="#c4e2ff"/></g><path d="m193.747 492.905c-4.418 0-8-3.582-8-8s3.582-8 8-8h276.898c4.418 0 8 3.582 8 8s-3.582 8-8 8z" fill="#a79ba7"/><g><path d="m81.188 203.314c-2.192 3.814-7.061 5.129-10.875 2.938-3.814-2.192-5.129-7.061-2.938-10.875l41.841-72.471c2.192-3.814 7.061-5.129 10.875-2.938.623.358 1.179.788 1.665 1.273l.023-.023 39.792 39.792 39.442-68.316c2.192-3.814 7.061-5.129 10.875-2.938.623.358 1.179.788 1.664 1.273l.023-.023 42.708 42.708 57.689-57.689c3.124-3.124 8.189-3.124 11.312 0 3.124 3.124 3.124 8.189 0 11.312l-63.345 63.345c-3.124 3.124-8.189 3.124-11.312 0l-41.018-41.018-39.074 67.678c-.386.842-.925 1.632-1.618 2.325-3.124 3.124-8.189 3.124-11.312 0l-39.792-39.792z" fill="#a79ba7"/><g fill="#6cf5c2"><circle cx="116.123" cy="126.874" r="18.782"/><circle cx="163.261" cy="174.012" r="18.782"/><circle cx="207.919" cy="96.663" r="18.782"/><circle cx="318.272" cy="83.039" r="18.782"/><circle cx="256.284" cy="145.027" r="18.782"/></g></g><g><g><path d="m202.794 439.176h258.66c0-71.427-57.903-129.33-129.33-129.33s-129.33 57.903-129.33 129.33z" fill="#eceff1"/><path d="m202.794 439.176h15.877c0-68.761 53.663-124.978 121.391-129.08-2.627-.159-5.272-.25-7.939-.25-71.426 0-129.329 57.903-129.329 129.33z" fill="#d1d1d6"/></g><path d="m452.818 439.176h43.18c0-90.465-73.337-163.802-163.803-163.802-90.465 0-163.803 73.337-163.803 163.802h43.18c0-66.618 54.005-120.622 120.622-120.622 66.62 0 120.624 54.004 120.624 120.622z" fill="#d8ecfe"/><path d="m452.818 439.176c-.001-21.974-5.877-42.576-16.143-60.321l15.956-23.379 21.444 1.784c13.942 24.095 21.923 52.074 21.923 81.916z" fill="#fd4755"/><path d="m392.516 334.696c-17.745-10.266-38.347-16.142-60.321-16.142v-43.18c29.84 0 57.817 7.979 81.914 21.921z" fill="#ffd064"/><path d="m227.716 378.854-37.401-21.594c14.38-24.853 35.102-45.576 59.952-59.957l21.605 37.394c-18.303 10.591-33.565 25.854-44.156 44.157z" fill="#00e499"/><path d="m211.573 439.173c.001-21.974 5.877-42.576 16.143-60.319l-37.402-21.593c-13.941 24.095-21.921 52.072-21.921 81.912z" fill="#6cf5c2"/><path d="m271.877 334.693c17.744-10.266 38.346-16.142 60.32-16.142v-43.18c-29.846 0-57.827 7.982-81.926 21.928z" fill="#ffe177"/><path d="m436.674 378.852c-10.589-18.304-25.851-33.565-44.154-44.156l21.592-37.402c24.855 14.382 45.581 35.106 59.964 59.963z" fill="#fe646f"/><g><path d="m369.911 377.897-26.202 67.968-23.17-13.378 45.286-56.929c1.683-2.115 5.058-.183 4.086 2.339z" fill="#a79ba7"/><path d="m369.911 377.897-26.202 67.968-6.493-3.749 22.883-59.36 5.726-7.198c1.683-2.115 5.058-.183 4.086 2.339z" fill="#837683"/></g><g><path d="m340.899 423.425c8.699 4.846 11.823 15.827 6.977 24.527-4.846 8.699-15.827 11.823-24.527 6.977s-11.823-15.827-6.977-24.527c4.847-8.7 15.828-11.823 24.527-6.977z" fill="#685e68"/><path d="m340.899 423.425c8.699 4.846 11.823 15.827 6.977 24.526-3.987 7.158-12.126 10.539-19.731 8.815 4.83-1.089 9.194-4.149 11.793-8.815 4.846-8.699 1.723-19.68-6.977-24.526-1.542-.859-3.156-1.467-4.795-1.838 4.175-.942 8.699-.409 12.733 1.838z" fill="#544854"/></g></g></g></svg>