<svg xmlns="http://www.w3.org/2000/svg" viewBox="0 0 64 80" x="0px" y="0px"><g><g data-name="Group"><rect x="20.6665" y="58" width="22.66699" height="2"/></g><path d="M61,45.67969H3a.99974.99974,0,0,1-1-1V7.72754A3.72681,3.72681,0,0,1,5.71777,4H58.28223A3.72681,3.72681,0,0,1,62,7.72754V44.67969A.99974.99974,0,0,1,61,45.67969Zm-57-2H60V7.72754A1.72484,1.72484,0,0,0,58.28223,6H5.71777A1.72484,1.72484,0,0,0,4,7.72754Z"/><path d="M58.26465,51.082H5.71777A3.72765,3.72765,0,0,1,2,47.35352V44.67969a.99974.99974,0,0,1,1-1H61a.99974.99974,0,0,1,1,1v2.65723A3.74432,3.74432,0,0,1,58.26465,51.082ZM4,45.67969v1.67383A1.72506,1.72506,0,0,0,5.71777,49.082H58.26465A1.74235,1.74235,0,0,0,60,47.33691V45.67969Z"/><g data-name="Group"><rect x="31" y="50.08203" width="2" height="8.91797"/></g><g data-name="Group"><path d="M46.03125,37.29H41.79346a.99974.99974,0,0,1-1-1V22.58887a1.00123,1.00123,0,0,1,.57031-.90332l4.23779-2.0166a1,1,0,0,1,1.42969.90332V36.29A.99974.99974,0,0,1,46.03125,37.29Zm-3.23779-2h2.23779V22.15527L42.79346,23.2207Z"/></g><g data-name="Group"><path d="M36.99121,37.29H32.75293a.99974.99974,0,0,1-1-1V26.41992a1.00123,1.00123,0,0,1,.57031-.90332L36.56152,23.5a1,1,0,0,1,1.42969.90332V36.29A.99974.99974,0,0,1,36.99121,37.29Zm-3.23828-2h2.23828V25.98633l-2.23828,1.06543Z"/></g><g data-name="Group"><path d="M55.07178,37.29H50.8335a.99974.99974,0,0,1-1-1v-17.835a1.00123,1.00123,0,0,1,.57031-.90332l4.23828-2.01563a1,1,0,0,1,1.42969.90332V36.29A.99974.99974,0,0,1,55.07178,37.29Zm-3.23828-2h2.23828V18.02246L51.8335,19.08691Z"/></g><g data-name="Group"><path d="M16.96875,37.6709a9.74273,9.74273,0,0,1,0-19.48535.99974.99974,0,0,1,1,1v7.74316H25.6792a.99974.99974,0,0,1,1,1A9.73715,9.73715,0,0,1,16.96875,37.6709Zm-1-17.4209a7.741,7.741,0,1,0,8.64648,8.67871H16.96875a.99974.99974,0,0,1-1-1Z"/></g><g data-name="Group"><path d="M29.73,24.83594H21.01953a.99974.99974,0,0,1-1-1V15.09277a.99974.99974,0,0,1,1-1A9.738,9.738,0,0,1,30.73,23.83594.99974.99974,0,0,1,29.73,24.83594Zm-7.71045-2H28.666a7.74579,7.74579,0,0,0-6.64648-6.67871Z"/></g></g></svg>