<svg id="Layer_1" enable-background="new 0 0 512 512" viewBox="0 0 512 512" xmlns="http://www.w3.org/2000/svg"><g><g><g><g clip-rule="evenodd" fill-rule="evenodd"><path d="m346.969 468.336h-128.814c10.281-14.548 18.805-52.032 15.113-80.95h97.68c-3.69 28.918 5.745 66.402 16.021 80.95z" fill="#a9b0bb"/><path d="m195.199 463.334h174.725c8.983 0 16.333 7.35 16.333 16.333 0 8.983-7.35 16.333-16.333 16.333h-174.725c-8.983 0-16.333-7.35-16.333-16.333.001-8.983 7.35-16.333 16.333-16.333z" fill="#cad0d7"/><path d="m449.73 129.793c10.884 0 19.71 8.826 19.71 19.714v221.667c0 14.819-12.012 26.832-26.832 26.832h-320.096c-14.82 0-26.832-12.013-26.832-26.832v-214.549c0-14.82 12.012-26.832 26.832-26.832z" fill="#a9b0bb"/><path d="m111.253 329.06h342.613c0-59.851 0-119.702 0-179.553 0-2.29-1.846-4.141-4.137-4.141h-327.217c-6.224 0-11.259 5.035-11.259 11.259z" fill="#a4d4ff"/><path d="m469.44 344.634v26.541c0 14.82-12.012 26.832-26.832 26.832h-320.096c-14.82 0-26.832-12.013-26.832-26.832v-26.541z" fill="#cad0d7"/></g></g><path clip-rule="evenodd" d="m211.672 351.371c-17.217 0-25.855 20.858-13.682 33.031 2.242 2.242 2.242 5.88 0 8.122l-12.364 12.364c-2.242 2.242-5.88 2.242-8.122 0-12.173-12.173-33.031-3.535-33.031 13.682 0 3.173-2.572 5.743-5.743 5.743h-17.485c-3.171 0-5.743-2.57-5.743-5.743 0-17.238-20.842-25.87-33.031-13.682-2.243 2.242-5.88 2.242-8.122 0l-12.364-12.364c-2.243-2.242-2.243-5.88 0-8.122 12.173-12.173 3.535-33.031-13.682-33.031-3.173 0-5.743-2.572-5.743-5.743v-17.485c0-3.171 2.57-5.743 5.743-5.743 17.217 0 25.855-20.858 13.682-33.031-2.243-2.242-2.243-5.88 0-8.122l12.364-12.364c2.242-2.242 5.88-2.242 8.122 0 12.173 12.173 33.031 3.535 33.031-13.682 0-3.173 2.572-5.743 5.743-5.743h17.485c3.171 0 5.743 2.57 5.743 5.743 0 17.217 20.858 25.855 33.031 13.682 2.243-2.242 5.88-2.242 8.122 0l12.364 12.364c2.242 2.242 2.242 5.88 0 8.122-12.173 12.173-3.535 33.031 13.682 33.031 3.173 0 5.743 2.572 5.743 5.743v17.485c0 3.171-2.57 5.743-5.743 5.743zm-81.684-57.21c-23.596 0-42.724 19.128-42.724 42.724s19.129 42.724 42.724 42.724c23.596 0 42.724-19.129 42.724-42.724s-19.129-42.724-42.724-42.724z" fill="#fdcd56" fill-rule="evenodd"/><g><g><path clip-rule="evenodd" d="m428.954 88.918c7.465 0 13.517-6.052 13.517-13.517s-6.052-13.517-13.517-13.517-13.517 6.052-13.517 13.517 6.052 13.517 13.517 13.517zm-292.788 0c7.465 0 13.517-6.052 13.517-13.517s-6.052-13.517-13.517-13.517-13.517 6.052-13.517 13.517 6.052 13.517 13.517 13.517zm34.088-45.884c7.465 0 13.517-6.052 13.517-13.517s-6.052-13.517-13.517-13.517-13.517 6.052-13.517 13.517 6.052 13.517 13.517 13.517zm112.306 45.884c7.465 0 13.517-6.052 13.517-13.517s-6.052-13.517-13.517-13.517-13.517 6.052-13.517 13.517 6.052 13.517 13.517 13.517zm112.306-45.884c7.465 0 13.517-6.052 13.517-13.517s-6.052-13.517-13.517-13.517-13.517 6.052-13.517 13.517 6.051 13.517 13.517 13.517z" fill="#fdcd56" fill-rule="evenodd"/></g><g clip-rule="evenodd" fill="#fdcd56" fill-rule="evenodd"><path d="m226.407 115.943h112.305c0 31.012-25.14 56.153-56.153 56.153-31.011-.001-56.152-25.141-56.152-56.153z"/><path d="m431.967 142.437c-31.491 0-47.291 38.151-25.025 60.417 4.101 4.102 4.101 10.755 0 14.856l-22.615 22.615c-4.102 4.101-10.755 4.101-14.856 0-22.266-22.266-60.417-6.466-60.417 25.025 0 5.803-4.704 10.504-10.504 10.504h-31.98c-5.8 0-10.504-4.701-10.504-10.504 0-31.53-38.122-47.319-60.417-25.025-4.101 4.101-10.754 4.101-14.855 0l-22.615-22.615c-4.101-4.102-4.101-10.754 0-14.856 22.266-22.266 6.466-60.417-25.025-60.417-5.804 0-10.504-4.704-10.504-10.504v-10.99c0-2.754 2.246-5 5-5h71.915c2.65 0 4.833 2.058 4.99 4.704 2.432 40.968 36.427 73.442 78.007 73.442s75.574-32.474 78.007-73.442c.157-2.645 2.34-4.704 4.989-4.704h71.915c2.754 0 5 2.246 5 5v10.99c-.002 5.799-4.702 10.504-10.506 10.504z"/></g></g></g><path clip-rule="evenodd" d="m129.991 372.61c-19.702 0-35.734-16.018-35.734-35.72s16.032-35.72 35.734-35.72c19.697 0 35.72 16.018 35.72 35.72-.001 19.702-16.023 35.72-35.72 35.72zm0-85.438c-27.424 0-49.733 22.3-49.733 49.719s22.309 49.718 49.733 49.718c27.419 0 49.719-22.3 49.719-49.718-.001-27.42-22.3-49.719-49.719-49.719zm40.27-264.173c3.59 0 6.508 2.932 6.508 6.522 0 3.6-2.917 6.522-6.508 6.522-3.6 0-6.522-2.922-6.522-6.522 0-3.59 2.922-6.522 6.522-6.522zm160.957 99.95c-3.411 23.8-23.928 42.152-48.66 42.152-24.727 0-45.248-18.352-48.66-42.152zm-48.66-54.057c3.59 0 6.522 2.917 6.522 6.517 0 3.59-2.931 6.512-6.522 6.512-3.59 0-6.522-2.922-6.522-6.512 0-3.6 2.932-6.517 6.522-6.517zm112.311-45.893c3.59 0 6.513 2.932 6.513 6.522 0 3.6-2.922 6.522-6.513 6.522-3.6 0-6.522-2.922-6.522-6.522.001-3.59 2.922-6.522 6.522-6.522zm-224.608 27.043c8.846 0 16.389-5.651 19.26-13.519h29.889v79.429c0 34.821 28.327 63.148 63.148 63.148s63.153-28.327 63.153-63.148v-79.429h29.889c2.88 7.868 10.409 13.519 19.269 13.519 11.307 0 20.511-9.209 20.511-20.521.001-11.312-9.203-20.521-20.511-20.521-8.861 0-16.389 5.651-19.269 13.519h-36.891c-3.863 0-7.002 3.139-7.002 7.002v79.429h-42.147v-14.281c7.868-2.87 13.519-10.409 13.519-19.26 0-11.317-9.209-20.516-20.521-20.516s-20.521 9.199-20.521 20.516c0 8.851 5.651 16.389 13.519 19.26v14.281h-42.147v-79.429c0-3.863-3.139-7.002-6.997-7.002h-36.892c-2.87-7.868-10.413-13.519-19.259-13.519-11.322 0-20.521 9.209-20.521 20.521s9.199 20.521 20.521 20.521zm134.046 321.278c0 3.868-3.129 6.997-6.997 6.997h-29.499c-3.872 0-7.002-3.129-7.002-6.997 0-3.858 3.129-7.002 7.002-7.002h29.499c3.868 0 6.997 3.144 6.997 7.002zm138.3 19.688c10.931 0 19.834-8.889 19.834-19.829v-19.537h-239.535c-2.145 4-6.376 6.738-11.237 6.738-5.148 0-9.411 2.852-11.392 7.623-1.976 4.776-.988 9.807 2.663 13.458 2.409 2.4 3.727 5.6 3.727 9.011 0 .857-.08 1.708-.25 2.536zm-109.469 65.332h-101.301c5.421-14.7 8.903-33.79 9.27-51.328h82.092c.518 17.349 4.249 36.44 9.939 51.328zm46.118 23.33c0 5.153-4.188 9.331-9.326 9.331h-174.73c-5.138 0-9.331-4.178-9.331-9.331 0-5.139 4.193-9.331 9.331-9.331h174.73c5.138 0 9.326 4.192 9.326 9.331zm-197.707-80.601 10.62-10.621c-6.96-7.618-8.823-18.159-4.833-27.8 4-9.646 12.771-15.777 23.081-16.248v-15.02c-10.31-.47-19.081-6.602-23.081-16.248-3.99-9.642-2.127-20.182 4.833-27.8l-10.62-10.62c-7.623 6.96-18.159 8.818-27.81 4.828-9.641-4-15.782-12.771-16.238-23.08h-15.025c-.466 10.31-6.597 19.081-16.248 23.08-9.646 3.99-20.177 2.132-27.8-4.828l-10.63 10.62c6.969 7.618 8.832 18.159 4.832 27.8-3.99 9.646-12.762 15.778-23.071 16.248v15.02c10.31.47 19.081 6.602 23.071 16.248 4 9.642 2.136 20.182-4.823 27.8l10.62 10.621c7.623-6.969 18.163-8.828 27.81-4.837 9.642 4 15.773 12.766 16.239 23.09h15.025c.456-10.31 6.597-19.081 16.238-23.081 9.652-3.99 20.187-2.132 27.81 4.828zm-64.913-261.378c-8.079 2.508-13.956 10.051-13.956 18.94v109.06c3.68-2.23 5.821-6.018 5.821-10.479 0-7.03 5.717-12.752 12.747-12.752h17.481c7.03 0 12.738 5.722 12.738 12.752 0 5.148 2.861 9.411 7.632 11.387 4.781 1.981 9.811.983 13.458-2.659 4.959-4.969 13.053-4.969 18.022 0l12.361 12.361c2.409 2.409 3.727 5.609 3.727 9.006 0 3.411-1.318 6.611-3.727 9.011-3.651 3.652-4.639 8.682-2.663 13.462 1.981 4.772 6.244 7.628 11.392 7.628 7.03 0 12.752 5.712 12.752 12.743v9.491h238.02v-188.13c0-7.011-5.703-12.71-12.71-12.71h-.96c-2.113 7.289-8.842 12.639-16.803 12.639-13.966 0-22.69 9.058-26.21 17.537-3.51 8.484-3.741 21.053 6.131 30.934 6.828 6.828 6.828 17.928 0 24.746l-22.61 22.619c-6.828 6.823-17.928 6.823-24.76 0-9.867-9.867-22.45-9.637-30.929-6.126-8.479 3.506-17.528 12.239-17.528 26.2 0 9.646-7.863 17.509-17.514 17.509h-31.979c-9.651 0-17.5-7.863-17.5-17.509 0-13.98-9.058-22.723-17.528-26.224-8.475-3.51-21.052-3.741-30.943 6.15-6.828 6.823-17.928 6.823-24.747 0l-22.619-22.619c-6.823-6.818-6.833-17.919 0-24.746 9.867-9.882 9.637-22.45 6.126-30.934-3.51-8.479-12.239-17.537-26.21-17.537-7.627 0-14.121-4.922-16.512-11.75zm13.011-14.742v8.992c0 1.929 1.572 3.496 3.501 3.496 17.462 0 32.449 10.032 39.141 26.182 6.691 16.154 3.181 33.852-9.157 46.194-1.374 1.36-1.374 3.585 0 4.95l22.605 22.619c1.374 1.369 3.59 1.36 4.964 0 8.206-8.22 18.784-12.521 29.706-12.521 5.491 0 11.081 1.087 16.493 3.327 16.14 6.691 26.168 21.692 26.168 39.164 0 1.939 1.572 3.506 3.501 3.506h31.979c1.934 0 3.51-1.567 3.51-3.506 0-17.453 10.032-32.44 26.172-39.131 16.149-6.691 33.851-3.181 46.189 9.161 1.369 1.36 3.59 1.369 4.96 0l22.61-22.619c1.37-1.365 1.37-3.59 0-4.95-12.338-12.343-15.853-30.04-9.161-46.194 6.691-16.149 21.692-26.182 39.141-26.182 1.929 0 3.501-1.567 3.501-3.496v-8.992h-68.051c-3.567 43.691-40.256 78.14-84.859 78.14-44.589 0-81.288-34.449-84.859-78.14zm6.522-41.028c-3.6 0-6.522-2.922-6.522-6.512 0-3.6 2.922-6.517 6.522-6.517 3.59 0 6.508 2.917 6.508 6.517 0 3.59-2.917 6.512-6.508 6.512zm292.782-13.029c3.595 0 6.517 2.917 6.517 6.517 0 3.59-2.922 6.512-6.517 6.512-3.59 0-6.512-2.922-6.512-6.512 0-3.6 2.922-6.517 6.512-6.517zm20.78 53.911h-.264v-6.851c0-1.864-.739-3.642-2.047-4.95-1.313-1.322-3.092-2.052-4.95-2.052h-40.604v-26.539h7.825c2.866 7.868 10.409 13.509 19.26 13.509 11.317 0 20.516-9.199 20.516-20.511 0-11.317-9.199-20.516-20.516-20.516-8.851 0-16.394 5.637-19.26 13.519h-14.822c-3.873 0-7.002 3.129-7.002 6.997v33.541h-27.16c-3.868 0-6.997 3.129-6.997 7.002 0 39.23-31.922 71.138-71.152 71.138s-71.138-31.908-71.138-71.138c0-3.873-3.143-7.002-7.002-7.002h-27.16v-33.541c0-3.868-3.139-6.997-6.997-6.997h-14.832c-2.87-7.882-10.408-13.519-19.26-13.519-11.322 0-20.521 9.199-20.521 20.516 0 11.312 9.199 20.511 20.521 20.511 8.851 0 16.389-5.642 19.26-13.509h7.83v26.539h-40.609c-3.873 0-7.002 3.129-7.002 7.002v7.548c-15.378 3.181-26.967 16.832-26.967 33.132v108.41c-.433-.329-.861-.701-1.261-1.101-4.974-4.969-13.053-4.969-18.022 0l-12.362 12.361c-2.409 2.409-3.736 5.609-3.736 9.006 0 3.411 1.327 6.611 3.736 9.011 3.642 3.652 4.644 8.682 2.663 13.462-1.981 4.772-6.24 7.628-11.401 7.628-7.021 0-12.738 5.712-12.738 12.743v17.476c0 7.03 5.717 12.752 12.738 12.752 5.162 0 9.42 2.852 11.401 7.623 1.981 4.776.979 9.807-2.663 13.458-2.409 2.4-3.736 5.6-3.736 9.011 0 3.398 1.327 6.597 3.736 9.007l12.362 12.361c4.969 4.969 13.048 4.969 18.022 0 3.647-3.647 8.682-4.649 13.458-2.668 4.771 1.967 7.623 6.24 7.623 11.397 0 7.035 5.717 12.752 12.747 12.752h17.481c7.03 0 12.738-5.717 12.738-12.752 0-5.148 2.861-9.411 7.632-11.387 4.781-1.981 9.811-.983 13.458 2.659 4.959 4.969 13.053 4.969 18.022 0l4.828-4.828h31.71c-.428 19.641-5.101 39.268-10.371 51.328h-21.546c-12.86 0-23.33 10.47-23.33 23.33 0 12.87 10.47 23.33 23.33 23.33h174.73c12.86 0 23.33-10.46 23.33-23.33 0-12.86-10.47-23.33-23.33-23.33h-21.622c-5.529-12.263-10.498-31.96-11.11-51.328h105.409c18.652 0 33.833-15.18 33.833-33.833v-221.668c0-14.734-11.981-26.709-26.709-26.709z" fill-rule="evenodd"/></g></svg>