<?xml version="1.0" encoding="UTF-8"?>
<svg id="Layer_1" data-name="Layer 1" xmlns="http://www.w3.org/2000/svg" xmlns:xlink="http://www.w3.org/1999/xlink" viewBox="0 0 100 100">
  <defs>
    <style>
      .cls-1 {
        fill: url(#linear-gradient-6);
      }

      .cls-1, .cls-2, .cls-3, .cls-4, .cls-5, .cls-6 {
        opacity: .57;
      }

      .cls-1, .cls-2, .cls-3, .cls-4, .cls-5, .cls-6, .cls-7 {
        isolation: isolate;
      }

      .cls-2 {
        fill: url(#linear-gradient-5);
      }

      .cls-3 {
        fill: url(#linear-gradient-7);
      }

      .cls-4 {
        fill: url(#linear-gradient-2);
      }

      .cls-5 {
        fill: url(#linear-gradient-3);
      }

      .cls-6 {
        fill: url(#linear-gradient-4);
      }

      .cls-8 {
        fill: url(#linear-gradient);
      }

      .cls-9 {
        fill: #00be84;
      }

      .cls-10 {
        fill: #e6ecf4;
      }

      .cls-11 {
        fill: #fff;
      }

      .cls-12 {
        fill: #ffb62d;
      }

      .cls-13 {
        fill: #ff6d38;
      }

      .cls-14 {
        fill: #ceceea;
      }

      .cls-15 {
        fill: #d35400;
      }

      .cls-16 {
        fill: #d6e2ea;
      }

      .cls-17 {
        fill: #e2621b;
      }

      .cls-18 {
        fill: #1034fe;
      }

      .cls-19 {
        fill: #22b573;
      }

      .cls-20 {
        fill: #1860d3;
      }

      .cls-7 {
        fill: #536dfe;
        opacity: .25;
      }
    </style>
    <linearGradient id="linear-gradient" x1="1705.13" y1="-115.31" x2="1773.55" y2="-115.31" gradientTransform="translate(1000.3 -339.66) rotate(163.11) scale(.59 1.05) skewX(-24.43)" gradientUnits="userSpaceOnUse">
      <stop offset="0" stop-color="#db1162"/>
      <stop offset="1" stop-color="#ff6817"/>
    </linearGradient>
    <linearGradient id="linear-gradient-2" x1="63.73" y1="306.06" x2="75.93" y2="306.06" gradientTransform="translate(-1.51 349.1) rotate(2.86) scale(1 -1) skewX(-2.86)" gradientUnits="userSpaceOnUse">
      <stop offset="0" stop-color="#ebf2fc"/>
      <stop offset="1" stop-color="#84adef"/>
    </linearGradient>
    <linearGradient id="linear-gradient-3" x1="82.15" y1="312.04" x2="94.35" y2="312.04" xlink:href="#linear-gradient-2"/>
    <linearGradient id="linear-gradient-4" y1="283.88" y2="283.88" xlink:href="#linear-gradient-2"/>
    <linearGradient id="linear-gradient-5" x1="82.15" y1="289.85" x2="94.35" y2="289.85" xlink:href="#linear-gradient-2"/>
    <linearGradient id="linear-gradient-6" y1="263.36" y2="263.36" xlink:href="#linear-gradient-2"/>
    <linearGradient id="linear-gradient-7" x1="82.15" y1="269.29" x2="94.35" y2="269.29" xlink:href="#linear-gradient-2"/>
  </defs>
  <path class="cls-16" d="M46,88.26l-37.02,9.93c-1.79,.48-3.63-.58-4.12-2.37-.08-.28-.11-.57-.12-.86V15.75c0-1.51,1.02-2.84,2.49-3.23L44.24,2.57c1.79-.48,3.63,.58,4.12,2.37,.08,.28,.11,.57,.12,.86V85.02c0,1.51-1.01,2.84-2.47,3.24Z"/>
  <polygon class="cls-9" points="9.73 22.76 20.4 19.62 20.26 16.25 9.7 19.34 9.73 22.76"/>
  <polygon class="cls-11" points="9.77 28.21 23.94 24.03 23.79 20.64 9.74 24.79 9.77 28.21"/>
  <polygon class="cls-17" points="9.8 33.6 29.55 27.87 29.39 24.48 9.78 30.18 9.8 33.6"/>
  <polygon class="cls-11" points="9.92 39.03 23 35.25 22.85 31.86 9.9 35.61 9.92 39.03"/>
  <polygon class="cls-12" points="9.88 44.57 18.29 42.12 18.14 38.74 9.86 41.15 9.88 44.57"/>
  <polygon class="cls-17" points="19.94 41.63 35.44 37.07 35.28 33.69 19.79 38.24 19.94 41.63"/>
  <polygon class="cls-20" points="9.92 50.02 19.38 47.26 19.23 43.88 9.9 46.6 9.92 50.02"/>
  <polygon class="cls-12" points="21.39 46.66 28.08 44.7 27.93 41.32 21.23 43.28 21.39 46.66"/>
  <polygon class="cls-11" points="9.96 55.48 18.77 52.91 18.61 49.53 9.93 52.07 9.96 55.48"/>
  <polygon class="cls-11" points="20.83 52.3 22.57 51.78 22.43 48.39 20.68 48.91 20.83 52.3"/>
  <polygon class="cls-9" points="10 60.95 18.25 58.53 18.1 55.15 9.98 57.54 10 60.95"/>
  <polygon class="cls-11" points="20.33 58 29.49 55.32 29.34 51.94 20.3 54.58 20.33 58"/>
  <polygon class="cls-14" points="25.34 34.56 31.22 32.83 31.07 29.45 25.18 31.18 25.34 34.56"/>
  <polygon class="cls-18" points="28.28 22.78 32.23 21.59 32.07 18.21 28.12 19.39 28.28 22.78"/>
  <polygon class="cls-14" points="30.91 27.46 37.42 25.55 37.27 22.16 30.76 24.07 30.91 27.46"/>
  <polygon class="cls-11" points="9.73 67.13 20.4 64 20.26 60.61 9.7 63.71 9.73 67.13"/>
  <polygon class="cls-9" points="9.77 72.57 23.94 68.39 23.79 65.02 9.74 69.16 9.77 72.57"/>
  <polygon class="cls-17" points="9.8 77.97 29.55 72.23 29.39 68.85 9.78 74.55 9.8 77.97"/>
  <polygon class="cls-11" points="9.92 83.4 23 79.61 22.85 76.23 9.9 79.98 9.92 83.4"/>
  <polygon class="cls-8" points="9.88 88.94 18.29 86.49 18.14 83.11 9.86 85.52 9.88 88.94"/>
  <polygon class="cls-12" points="19.94 85.99 35.44 81.44 35.28 78.06 19.79 82.62 19.94 85.99"/>
  <polygon class="cls-20" points="9.92 94.39 19.38 91.63 19.23 88.25 9.9 90.97 9.92 94.39"/>
  <polygon class="cls-15" points="21.39 91.03 28.08 89.07 27.93 85.68 21.23 87.65 21.39 91.03"/>
  <polygon class="cls-14" points="25.34 78.93 31.22 77.2 31.07 73.81 25.18 75.54 25.34 78.93"/>
  <polygon class="cls-18" points="28.28 67.14 32.23 65.96 32.07 62.58 28.12 63.76 28.28 67.14"/>
  <polygon class="cls-14" points="30.91 71.82 37.42 69.91 37.27 66.53 30.76 68.45 30.91 71.82"/>
  <path class="cls-10" d="M70.87,88.26l-37,9.93c-1.79,.48-3.63-.59-4.11-2.38-.07-.28-.11-.56-.11-.85V15.75c0-1.51,1.02-2.84,2.49-3.23L69.13,2.57c1.79-.48,3.63,.59,4.11,2.38,.07,.28,.11,.56,.11,.85V85.02c0,1.52-1.02,2.85-2.49,3.24Z"/>
  <path class="cls-9" d="M49.13,54.31l-2.95,2.12-.15,3.81-4.45,1.01c.05-1.21,.08-2.35,.14-3.5,0-.28-.05-.4-.26-.44-.67-.13-1.33-.3-1.98-.51-.7-.23-.47-.39-.99,.53s-.99,1.74-1.49,2.64l-3.27-3.19c.47-.83,.91-1.61,1.34-2.39,.23-.29,.4-.62,.5-.98,0-.3-.23-.56-.36-.83,0-.06-.06-.12-.08-.19-.3-.76-.6-1.52-.91-2.3l-2.76,1.29-.54-5.9,2.71-1.29c.23-1.29,.41-2.53,.65-3.73,.09-.45,.06-.65-.21-.78-.65-.36-1.34-.78-2.03-1.19,.82-1.94,1.61-3.88,2.42-5.81,.15,.07,.25,.12,.35,.17,.59,.35,1.18,.7,1.77,1.03,.13,.06,.28,.03,.39-.06,.75-1.01,1.49-2.04,2.27-3.13l-.79-3.34,4.26-3.06c.25,1.06,.5,2.08,.74,3.11,.06,.27,.15,.32,.37,.25,.65-.2,1.29-.36,1.89-.52,.29-.07,.65,.04,.85-.19,.2-.38,.33-.79,.4-1.21,.24-.85,.48-1.7,.72-2.58l4.14,1.17c-.34,1.18-.65,2.32-.99,3.46-.08,.29-.05,.43,.11,.57,.65,.58,1.24,1.18,1.84,1.8,.15,.16,.25,.14,.42-.04,.65-.68,1.34-1.33,2-2,.09-.11,.17-.22,.24-.34l2.05,4.9-2.45,2.44c.1,1.23,.22,2.38,.28,3.56,0,.43,.11,.57,.42,.56,.78,0,1.54,0,2.35,.03-.34,2.1-.65,4.15-.99,6.23h-.49c-.65,0-1.29,0-1.94-.05-.24,0-.36,.11-.47,.43-.34,.91-.68,1.81-1.07,2.69s-.42,.89,0,1.55,.82,1.29,1.25,1.94l-3.56,4.74-1.68-2.52Zm-9.88-13.51c-1.19,4.38,.19,8.54,3.09,9.27s6.3-2.18,7.45-6.46c1.15-4.28-.22-8.53-3.09-9.27s-6.26,2.14-7.45,6.46Z"/>
  <path class="cls-7" d="M52.9,81.56l-1.74,1.22-.08,2.23-2.58,.59c0-.7,.05-1.38,.08-2.05,0-.17,0-.23-.15-.26-.39-.08-.78-.18-1.16-.3-.41-.14-.27-.23-.58,.31s-.57,1.01-.87,1.54l-1.94-1.87,.83-1.38c.13-.17,.23-.36,.3-.57,0-.17-.14-.33-.21-.49l-.05-.11c-.17-.45-.35-.88-.54-1.34l-1.61,.75-.32-3.45,1.57-.72c.13-.78,.23-1.48,.37-2.19,.05-.26,.04-.37-.12-.45-.39-.21-.78-.46-1.19-.7l1.41-3.41,.21,.1c.34,.2,.68,.41,1.03,.61,.08,.03,.17,.02,.23-.04,.44-.59,.87-1.19,1.33-1.83l-.47-1.94,2.49-1.8c.15,.65,.3,1.21,.43,1.82,.04,.16,.09,.19,.22,.15,.37-.12,.74-.21,1.1-.3,.17-.04,.38,0,.5-.11,.11-.22,.19-.46,.23-.7,.15-.5,.28-.99,.43-1.5l2.4,.65c-.19,.68-.38,1.36-.57,2.02-.05,.17,0,.25,.06,.34,.37,.34,.73,.68,1.08,1.05,.09,.09,.15,.08,.25,0l1.17-1.17c.05-.06,.1-.13,.14-.2l1.2,2.87-1.45,1.4c.06,.72,.13,1.4,.16,2.08,0,.25,.06,.34,.25,.33h1.38l-.58,3.65h-1.43c-.14,0-.2,.06-.27,.25-.2,.53-.4,1.06-.65,1.58s-.25,.52,0,.9,.48,.74,.73,1.12l-2.09,2.77-.93-1.47Zm-5.81-7.91c-.7,2.58,.12,5,1.81,5.43s3.68-1.29,4.35-3.79-.13-4.98-1.8-5.41-3.64,1.27-4.33,3.77h-.03Z"/>
  <path class="cls-16" d="M95.77,88.26l-37,9.93c-1.79,.48-3.63-.58-4.12-2.37-.08-.28-.11-.57-.12-.86V15.75c0-1.51,1.02-2.84,2.49-3.23L94.03,2.57c1.79-.48,3.63,.58,4.12,2.37,.08,.28,.11,.57,.12,.86V85.02c0,1.52-1.02,2.85-2.49,3.24Z"/>
  <path class="cls-11" d="M70.99,29.73l10.26-3.53c.92-.47,1.49-1.43,1.45-2.46h0c0-1.08-.65-1.73-1.45-1.45l-10.25,3.52c-.92,.47-1.49,1.43-1.46,2.46h0c0,1.08,.65,1.73,1.45,1.46Z"/>
  <path class="cls-19" d="M71.91,28.25l8.62-2.95c.37-.19,.6-.57,.58-.98h0c0-.43-.26-.68-.58-.57l-8.62,2.95c-.36,.19-.59,.57-.57,.98h0c0,.43,.26,.68,.57,.57Z"/>
  <ellipse class="cls-18" cx="63.93" cy="30.19" rx="2.16" ry="1.52" transform="translate(7.51 72.79) rotate(-62.33)"/>
  <path class="cls-9" d="M89.36,13.75c0,1.08,.76,1.7,1.68,1.38,1.01-.44,1.67-1.43,1.69-2.53,0-1.09-.76-1.7-1.68-1.38-1.01,.44-1.67,1.43-1.69,2.54Z"/>
  <path class="cls-9" d="M83.46,15.79c0,1.09,.76,1.7,1.68,1.38,1.01-.44,1.67-1.43,1.69-2.54,0-1.08-.75-1.7-1.68-1.38-1.01,.45-1.67,1.44-1.69,2.54Z"/>
  <path class="cls-20" d="M77.51,17.83c0,1.08,.75,1.7,1.68,1.38,1.01-.44,1.67-1.43,1.68-2.53,0-1.09-.75-1.7-1.68-1.38-1.01,.44-1.67,1.44-1.68,2.54Z"/>
  <path class="cls-11" d="M68.73,17.55v5.28c.03,.95-.49,1.83-1.34,2.26l-4.94,1.7c-.74,.25-1.34-.34-1.34-1.34v-5.32c-.03-.95,.5-1.83,1.34-2.26l4.95-1.7c.74-.25,1.34,.36,1.33,1.38Z"/>
  <path class="cls-13" d="M67.58,18.72v3.69c.04,.67-.32,1.29-.91,1.6l-3.47,1.16c-.52,.17-.94-.24-.94-.94v-3.69c-.02-.66,.35-1.28,.94-1.58l3.47-1.19c.5-.18,.91,.25,.91,.94Z"/>
  <polygon class="cls-4" points="74.46 52.94 62.45 56.15 62.26 40.12 74.26 36.91 74.46 52.94"/>
  <polygon class="cls-11" points="72.02 50.38 64.81 52.31 64.7 42.69 71.9 40.76 72.02 50.38"/>
  <polygon class="cls-12" points="70.19 48.46 66.59 49.42 66.53 44.61 70.13 43.65 70.19 48.46"/>
  <polygon class="cls-5" points="92.89 47.89 80.89 51.1 80.69 35.07 92.7 31.86 92.89 47.89"/>
  <polygon class="cls-11" points="90.46 45.32 83.25 47.25 83.13 37.64 90.33 35.71 90.46 45.32"/>
  <polygon class="cls-17" points="88.62 43.41 85.02 44.37 84.97 39.56 88.56 38.6 88.62 43.41"/>
  <polygon class="cls-6" points="74.46 75.12 62.45 78.34 62.26 62.31 74.26 59.1 74.46 75.12"/>
  <polygon class="cls-11" points="72.02 72.56 64.81 74.49 64.7 64.87 71.9 62.95 72.02 72.56"/>
  <polygon class="cls-9" points="70.19 70.64 66.59 71.6 66.53 66.8 70.13 65.83 70.19 70.64"/>
  <polygon class="cls-2" points="92.89 70.07 80.89 73.29 80.69 57.26 92.7 54.04 92.89 70.07"/>
  <polygon class="cls-11" points="90.46 67.51 83.25 69.44 83.13 59.82 90.33 57.89 90.46 67.51"/>
  <polygon class="cls-20" points="88.62 65.59 85.02 66.55 84.97 61.75 88.56 60.78 88.62 65.59"/>
  <polygon class="cls-1" points="74.46 93.99 62.45 97.2 62.26 84.5 74.26 81.28 74.46 93.99"/>
  <polygon class="cls-11" points="72.02 94.66 64.81 96.59 64.7 87.06 71.9 85.13 72.02 94.66"/>
  <polygon class="cls-20" points="70.19 92.82 66.59 93.79 66.53 88.98 70.13 88.02 70.19 92.82"/>
  <polygon class="cls-3" points="92.89 89.03 80.89 92.24 80.69 79.44 92.7 76.23 92.89 89.03"/>
  <polygon class="cls-11" points="90.46 89.69 83.25 91.63 83.13 82.01 90.33 80.08 90.46 89.69"/>
  <polygon class="cls-19" points="88.62 87.77 85.02 88.74 84.97 83.93 88.56 82.96 88.62 87.77"/>
</svg>